<svg width="255" height="45" viewBox="0 0 255 45" fill="none" xmlns="http://www.w3.org/2000/svg">
<path d="M22.6349 15.9671V13.0559H12.4704V17.2007H16.8125L16.7961 17.5625C16.6316 19.9474 14.7237 21.5592 11.9934 21.5592C8.52303 21.5592 6.28618 18.7138 6.28618 14.0099C6.28618 9.38816 8.30921 6.70724 11.7303 6.70724C14.0493 6.70724 15.8257 7.99013 16.4178 10.0954H22.3882C21.7796 5.25987 17.4704 1.85526 11.7138 1.85526C4.54276 1.85526 0.134868 6.39474 0.134868 14.0921C0.134868 21.8882 4.54276 26.4112 11.8618 26.4112C18.6217 26.4112 22.6349 22.4474 22.6349 15.9671ZM25.398 26H31.2204V1.08224H25.398V26ZM43.0296 26.3947C48.8026 26.3947 52.3553 22.9079 52.3553 16.8388C52.3553 10.8684 48.7368 7.29934 43.0296 7.29934C37.3388 7.29934 33.704 10.9013 33.704 16.8388C33.704 22.8914 37.2566 26.3947 43.0296 26.3947ZM43.0296 22.102C40.8915 22.102 39.6086 20.2105 39.6086 16.8388C39.6086 13.5493 40.9079 11.5921 43.0296 11.5921C45.1349 11.5921 46.4507 13.5493 46.4507 16.8388C46.4507 20.2105 45.1513 22.102 43.0296 22.102ZM54.7072 26H60.5296V16.3289C60.5296 13.7632 61.9112 12.3487 64.4112 12.3487C65.1184 12.3487 65.8092 12.4638 66.3026 12.6776V7.67763C65.9079 7.54605 65.3816 7.44737 64.8059 7.44737C62.6349 7.44737 61.1382 8.69737 60.4803 11.1316H60.3651V7.69408H54.7072V26ZM68.1612 26H74V7.69408H68.1612V26ZM71.0724 6.18092C72.7336 6.18092 74.0822 4.96382 74.0822 3.30263C74.0822 1.65789 72.7336 0.424341 71.0724 0.424341C69.4276 0.424341 68.0789 1.65789 68.0789 3.30263C68.0789 4.96382 69.4276 6.18092 71.0724 6.18092ZM85.727 26.3947C91.5 26.3947 95.0526 22.9079 95.0526 16.8388C95.0526 10.8684 91.4342 7.29934 85.727 7.29934C80.0362 7.29934 76.4013 10.9013 76.4013 16.8388C76.4013 22.8914 79.954 26.3947 85.727 26.3947ZM85.727 22.102C83.5888 22.102 82.3059 20.2105 82.3059 16.8388C82.3059 13.5493 83.6053 11.5921 85.727 11.5921C87.8322 11.5921 89.148 13.5493 89.148 16.8388C89.148 20.2105 87.8487 22.102 85.727 22.102ZM115.135 7.69408H109.296V18.023C109.296 20.1447 108.095 21.5592 106.204 21.5592C104.296 21.5592 103.145 20.375 103.145 18.1546V7.69408H97.3224V19.4375C97.3224 23.7467 100.069 26.3125 104.016 26.3125C106.763 26.3125 108.523 24.9309 109.345 22.5461H109.461V26H115.135V7.69408ZM117.734 13.2368C117.734 16.0164 119.625 17.8914 123.194 18.648L126.632 19.3717C128.095 19.6842 128.655 20.1118 128.655 20.8684C128.655 21.8553 127.668 22.4474 126.039 22.4474C124.28 22.4474 123.145 21.6414 122.964 20.2599H117.306C117.553 23.977 120.661 26.3947 125.924 26.3947C131.007 26.3947 134.428 23.977 134.428 20.2105C134.428 17.4474 132.882 15.9671 129.23 15.1941L125.447 14.4046C124.033 14.1086 123.342 13.5987 123.342 12.8586C123.342 11.8882 124.313 11.2467 125.793 11.2467C127.47 11.2467 128.556 12.0855 128.605 13.4013H133.934C133.901 9.65132 130.793 7.29934 125.859 7.29934C120.875 7.29934 117.734 9.60197 117.734 13.2368Z" fill="white"/>
<path d="M164.276 2.26645H162.796L153.24 24.3059H153.141L143.553 2.26645H142.105V26H143.355V4.96382H143.421L152.566 25.9507H153.816L162.961 4.96382H163.026V26H164.276V2.26645ZM175.329 26.2303C180.049 26.2303 183.224 22.7105 183.224 17.1513C183.224 11.5757 180.049 8.05592 175.329 8.05592C170.625 8.05592 167.451 11.5757 167.451 17.1513C167.451 22.7105 170.609 26.2303 175.329 26.2303ZM175.329 25.0789C171.349 25.0789 168.734 22.0362 168.734 17.1513C168.734 12.25 171.349 9.22368 175.329 9.22368C179.309 9.22368 181.924 12.25 181.924 17.1513C181.924 22.0197 179.309 25.0789 175.329 25.0789ZM192.944 26.2303C196.234 26.2303 198.799 24.0921 199.622 21.2303H199.671V26H200.872V1.23026H199.589V12.9572H199.556C198.766 10.1941 196.201 8.05592 192.928 8.05592C188.503 8.05592 185.378 11.7401 185.378 17.1513C185.378 22.5461 188.52 26.2303 192.944 26.2303ZM193.092 9.22368C196.891 9.22368 199.605 12.4638 199.605 17.1513C199.605 21.8224 196.891 25.0789 193.092 25.0789C189.309 25.0789 186.678 21.8717 186.678 17.1349C186.678 12.4145 189.309 9.22368 193.092 9.22368ZM211.809 9.20724C215.543 9.20724 218.076 12.0691 218.092 16.2632H205.378C205.576 12.0362 208.125 9.20724 211.809 9.20724ZM217.878 21.0493C217.368 23.3684 215.214 25.0789 211.974 25.0789C207.993 25.0789 205.362 22.25 205.362 17.4145V17.3487H219.391V16.6086C219.391 11.4605 216.398 8.05592 211.826 8.05592C207.155 8.05592 204.063 11.6743 204.063 17.1678C204.063 22.8586 207.155 26.2303 211.957 26.2303C215.872 26.2303 218.602 24.0428 219.178 21.0493H217.878ZM222.582 26H223.865V1.23026H222.582V26ZM244.342 1.92105C237.878 1.92105 233.766 6.65789 233.766 14.125C233.766 21.625 237.862 26.3454 244.342 26.3454C250.822 26.3454 254.918 21.625 254.918 14.125C254.918 6.65789 250.806 1.92105 244.342 1.92105ZM244.342 3.13816C249.984 3.13816 253.586 7.41447 253.586 14.125C253.586 20.852 249.984 25.1283 244.342 25.1283C238.701 25.1283 235.099 20.852 235.099 14.125C235.099 7.41447 238.684 3.13816 244.342 3.13816Z" fill="white"/>
<path d="M147.526 36.3257H147.576L149.83 44H150.63L153.156 34.8403H152.248L150.236 42.667H150.192L147.983 34.8403H147.119L144.904 42.667H144.866L142.847 34.8403H141.946L144.466 44H145.272L147.526 36.3257ZM162.955 44V34.8403H162.092V44H162.955ZM173.333 35.6147H175.643C176.976 35.6147 177.782 36.332 177.782 37.5444C177.782 38.7695 177.002 39.4805 175.675 39.4805H173.333V35.6147ZM173.333 40.2485H175.675C175.719 40.2485 175.776 40.2485 175.815 40.2485L177.922 44H178.931L176.716 40.1089C177.941 39.7915 178.677 38.814 178.677 37.519C178.677 35.8877 177.535 34.8403 175.745 34.8403H172.469V44H173.333V40.2485ZM193.415 43.2129H188.75V39.6963H193.18V38.9219H188.75V35.6274H193.415V34.8403H187.886V44H193.415V43.2129ZM208.147 43.2129H203.558V34.8403H202.694V44H208.147V43.2129ZM222.701 43.2129H218.035V39.6963H222.466V38.9219H218.035V35.6274H222.701V34.8403H217.172V44H222.701V43.2129ZM231.396 41.5117C231.491 43.0859 232.837 44.146 234.754 44.146C236.779 44.146 238.074 43.0923 238.074 41.4863C238.074 40.2104 237.299 39.5059 235.458 39.0425L234.468 38.7886C233.122 38.4458 232.551 37.9824 232.551 37.1953C232.551 36.186 233.491 35.4814 234.76 35.4814C236.061 35.4814 236.975 36.167 237.058 37.2017H237.928C237.877 35.748 236.569 34.6943 234.786 34.6943C232.983 34.6943 231.65 35.748 231.65 37.2271C231.65 38.4331 232.405 39.1504 234.1 39.582L235.236 39.874C236.595 40.2168 237.185 40.7246 237.185 41.5815C237.185 42.6099 236.201 43.3589 234.83 43.3589C233.395 43.3589 232.361 42.6099 232.266 41.5117H231.396ZM246.699 41.5117C246.794 43.0859 248.14 44.146 250.057 44.146C252.082 44.146 253.377 43.0923 253.377 41.4863C253.377 40.2104 252.602 39.5059 250.761 39.0425L249.771 38.7886C248.425 38.4458 247.854 37.9824 247.854 37.1953C247.854 36.186 248.794 35.4814 250.063 35.4814C251.364 35.4814 252.278 36.167 252.361 37.2017H253.231C253.18 35.748 251.872 34.6943 250.088 34.6943C248.286 34.6943 246.953 35.748 246.953 37.2271C246.953 38.4331 247.708 39.1504 249.403 39.582L250.539 39.874C251.898 40.2168 252.488 40.7246 252.488 41.5815C252.488 42.6099 251.504 43.3589 250.133 43.3589C248.698 43.3589 247.664 42.6099 247.568 41.5117H246.699Z" fill="#FDBA3B"/>
</svg>